<svg xmlns="http://www.w3.org/2000/svg" width="100" height="100" viewBox="0 0 26.458 26.458"><defs><style>.logo-text{fill:#0f766e}</style></defs><path d="M13.53 9.958q0 .308-.11.595-.102.287-.266.538-.404.63-1.027 1.03-.617.398-1.336.587t-1.43.189q-1.507 0-2.63-.644-1.117-.65-1.733-1.812t-.616-2.687q0-1.029.356-1.945.356-.924 1-1.638.643-.713 1.513-1.12.877-.405 1.91-.405.322 0 .644.042.322.035.63.133.192.063.384.14.191.077.397.077.185 0 .329-.091l.294-.19q.144-.09.308-.09.35 0 .459.224t.185.504l.616 2.183q.028.09.028.203 0 .328-.26.496-.26.161-.548.161-.336 0-.548-.238-.206-.237-.384-.587-.178-.357-.417-.707-.233-.35-.617-.588-.376-.238-1-.238-.609 0-.986.33-.376.321-.575.832-.198.504-.274 1.07-.068.567-.068 1.043 0 .854.246 1.637.247.784.815 1.288.569.497 1.534.497.514 0 .931-.21.418-.217.754-.497l.582-.497q.253-.217.424-.217.254 0 .37.19.116.181.116.412m4.753-4.73q1.13 0 1.979.476.856.475 1.335 1.336.48.86.48 2.022 0 1.14-.528 1.988-.527.84-1.417 1.308-.884.462-1.966.462-1.136 0-1.992-.476-.856-.483-1.336-1.35-.472-.875-.472-2.037 0-1.133.534-1.973t1.424-1.294q.89-.462 1.959-.462m.39 6.045q.171 0 .24-.182.075-.181.096-.398.02-.224.02-.343 0-.4-.061-.79-.062-.4-.158-.785-.034-.154-.13-.475-.096-.33-.233-.686t-.301-.609q-.164-.252-.35-.252-.157 0-.232.182-.069.182-.09.406-.02.217-.02.329 0 .189.055.609.055.412.158.923.11.511.26.987.15.469.335.777.192.307.411.307M5.816 22.819q0 .399-.226.595-.219.196-.595.196H3.46q-.37 0-.596-.182-.22-.182-.22-.581 0-.336.124-.497.13-.168.301-.273.178-.112.315-.266.137-.16.158-.483l.342-5.121v-.063q0-.266-.137-.4-.137-.14-.315-.251-.178-.112-.315-.287-.137-.182-.137-.518 0-.392.226-.574.226-.189.59-.189h2.43q.685 0 1.034.406.35.406.548 1.008l1.116 3.352 1.09-3.352q.198-.623.547-1.015.35-.399 1.048-.399h2.472q.37 0 .595.182.226.182.226.581 0 .329-.136.518-.137.182-.322.3-.178.12-.315.253-.137.126-.137.35v.035l.287 5.177q.02.343.144.497.13.147.288.238t.274.245q.123.147.123.497 0 .392-.22.602-.212.21-.595.21H10.87q-.37 0-.596-.182-.219-.182-.219-.581 0-.315.137-.497.137-.189.315-.308.185-.126.322-.252t.137-.336v-.042l-.233-3.33-1.397 4.114q-.103.308-.253.602-.144.287-.377.476-.233.182-.602.182-.473 0-.699-.168t-.445-.574q-.158-.287-.26-.595l-1.425-4.114-.219 3.323v.056q0 .238.117.392.116.147.26.273.15.126.267.301.116.175.116.469m9.649-2.561q0-1.064.404-1.98.404-.924 1.178-1.49.774-.567 1.89-.567.67 0 1.226.293v-.594q0-.308-.103-.462-.096-.154-.226-.245-.123-.098-.226-.21-.096-.119-.096-.35 0-.287.164-.434.172-.154.404-.245l1.486-.608q.26-.112.535-.196.273-.084.561-.084.28 0 .425.203.15.196.15.461v7.802q0 .343.048.476t.281.385q.137.147.192.252.055.098.055.308 0 .3-.192.469t-.48.168h-1.533q-.384 0-.74-.238-.35-.245-.493-.616-.418.462-.952.763-.527.294-1.185.294-.698 0-1.225-.308-.52-.315-.863-.833-.343-.525-.514-1.155t-.171-1.26m3.177-.35q0 .252.035.609.04.35.143.693.11.335.315.566.213.224.548.224.26 0 .48-.182v-3.736q-.117-.12-.26-.19-.144-.076-.316-.076-.315 0-.506.238-.185.23-.281.58-.096.343-.13.693-.028.35-.028.581" class="logo-text"/><path d="M69.36 91.104v26.458H95.82V91.104Zm1.372 1.371h23.715v23.715H70.732z" style="fill:#0f766e;fill-rule:evenodd" transform="translate(-69.36 -91.104)"/></svg>